<svg width="162" height="152" viewBox="0 0 162 152" fill="none" xmlns="http://www.w3.org/2000/svg">
<rect x="66" width="44" height="8" rx="4" fill="white" fill-opacity="0.4"/>
<rect x="44" y="16" width="44" height="8" rx="4" fill="white" fill-opacity="0.4"/>
<rect x="22" y="32" width="44" height="8" rx="4" fill="white" fill-opacity="0.4"/>
<rect x="22" y="64" width="44" height="8" rx="4" fill="white" fill-opacity="0.4"/>
<rect y="48" width="44" height="8" rx="4" fill="white" fill-opacity="0.4"/>
<rect x="96" y="56" width="44" height="8" rx="4" transform="rotate(-180 96 56)" fill="white" fill-opacity="0.4"/>
<rect x="66" y="96" width="44" height="8" rx="4" fill="white"/>
<rect x="44" y="80" width="44" height="8" rx="4" fill="white"/>
<rect x="96" y="152" width="44" height="8" rx="4" transform="rotate(-180 96 152)" fill="white"/>
<rect x="118" y="136" width="44" height="8" rx="4" transform="rotate(-180 118 136)" fill="white"/>
<rect x="118" y="72" width="44" height="8" rx="4" transform="rotate(-180 118 72)" fill="white"/>
<rect x="140" y="120" width="44" height="8" rx="4" transform="rotate(-180 140 120)" fill="white"/>
<rect x="140" y="88" width="44" height="8" rx="4" transform="rotate(-180 140 88)" fill="white"/>
<rect x="162" y="104" width="44" height="8" rx="4" transform="rotate(-180 162 104)" fill="white"/>
</svg>
